<?xml version="1.0" standalone="no"?>
<!DOCTYPE svg PUBLIC "-//W3C//DTD SVG 20010904//EN"
 "http://www.w3.org/TR/2001/REC-SVG-20010904/DTD/svg10.dtd">
<svg version="1.0" xmlns="http://www.w3.org/2000/svg"
 width="300.000000pt" height="400.000000pt" viewBox="0 0 300.000000 400.000000"
 preserveAspectRatio="xMidYMid meet">
<metadata>
Created by potrace 1.10, written by Peter Selinger 2001-2011
</metadata>
<g transform="translate(0.000000,400.000000) scale(0.100000,-0.100000)"
fill="#343131" stroke="none">
<path d="M2771 3996 c9 -10 89 -14 89 -5 0 5 -21 9 -47 9 -25 0 -44 -2 -42 -4z"/>
<path d="M2894 3992 c3 -6 0 -12 -6 -15 -7 -3 -3 -4 10 -4 23 1 25 18 2 25 -7
3 -10 0 -6 -6z"/>
<path d="M2936 3985 c-3 -8 -1 -15 3 -15 5 0 11 7 15 15 3 8 1 15 -3 15 -5 0
-11 -7 -15 -15z"/>
<path d="M2970 3990 c0 -5 7 -7 15 -4 8 4 15 8 15 10 0 2 -7 4 -15 4 -8 0 -15
-4 -15 -10z"/>
<path d="M2208 3813 c7 -3 16 -2 19 1 4 3 -2 6 -13 5 -11 0 -14 -3 -6 -6z"/>
<path d="M1341 3184 c0 -11 3 -14 6 -6 3 7 2 16 -1 19 -3 4 -6 -2 -5 -13z"/>
<path d="M1165 3110 c-10 -11 -16 -22 -14 -24 2 -2 12 7 22 20 22 29 17 32 -8
4z"/>
<path d="M1028 3093 c6 -2 18 -2 25 0 6 3 1 5 -13 5 -14 0 -19 -2 -12 -5z"/>
<path d="M1010 3071 c0 -6 4 -13 10 -16 6 -3 7 1 4 9 -7 18 -14 21 -14 7z"/>
<path d="M1105 3050 c-4 -6 1 -7 12 -3 10 3 15 3 11 -2 -4 -4 -15 -8 -25 -9
-17 -2 -55 -17 -94 -36 -9 -5 -21 -5 -28 0 -10 5 -7 13 10 29 12 11 20 21 16
21 -3 0 -19 -12 -35 -27 -55 -53 -87 -77 -102 -78 -20 0 -70 -40 -70 -55 0 -6
-5 -8 -10 -5 -6 4 -7 12 -3 18 4 7 0 6 -10 -2 -9 -7 -17 -19 -16 -25 0 -7 2
-6 6 2 2 6 9 10 13 7 16 -10 -12 -55 -43 -70 -17 -8 -31 -15 -32 -15 -2 0 -8
13 -15 30 -7 16 -15 28 -19 26 -4 -3 -12 4 -19 15 -7 11 -8 19 -2 19 5 0 10
12 9 28 -1 25 -1 26 -7 4 -8 -28 -27 -29 -26 -1 0 14 -3 16 -10 9 -12 -12 16
-67 45 -87 13 -10 15 -21 9 -52 -4 -21 -3 -47 3 -56 6 -12 5 -20 -4 -26 -16
-10 -12 -15 21 -23 14 -3 19 -3 13 0 -7 3 -13 12 -13 20 0 9 5 12 10 9 6 -3
10 -2 10 4 0 5 -5 11 -11 13 -8 3 -7 13 4 33 l16 30 1 -34 c0 -39 9 -38 12 2
1 14 4 24 7 21 9 -8 61 50 61 68 0 20 69 93 79 83 3 -4 -3 -14 -14 -23 -11
-10 -26 -25 -34 -35 -12 -15 -12 -18 -1 -15 15 3 50 36 93 87 15 18 27 29 27
26 0 -4 8 -1 17 6 14 12 16 12 8 0 -6 -11 -1 -12 31 -7 21 4 54 15 72 23 17 8
41 13 52 10 10 -3 20 -1 22 4 5 13 177 9 233 -6 33 -8 98 -45 103 -57 2 -4 9
-8 16 -8 6 0 29 -9 50 -19 33 -17 37 -17 31 -3 -3 9 6 3 20 -12 27 -29 32 -42
13 -29 -7 4 -2 -7 12 -24 14 -17 28 -29 31 -27 23 13 197 -204 183 -229 -4 -7
-4 -9 1 -5 5 5 17 -11 27 -34 14 -31 18 -57 14 -98 -2 -30 -5 -57 -6 -60 -1
-3 -1 -18 -1 -35 2 -37 -16 -101 -19 -70 -2 11 -4 30 -5 43 -1 13 -12 33 -24
46 -13 14 -18 26 -13 30 6 3 13 0 15 -6 3 -8 6 -6 6 5 1 9 -5 17 -13 17 -8 0
-17 12 -21 27 -4 16 -11 34 -17 40 -12 15 -58 18 -58 4 0 -4 12 -6 26 -3 19 3
25 1 20 -7 -4 -6 -3 -11 2 -11 14 0 22 -38 8 -44 -7 -3 -7 -5 2 -5 6 -1 12 -7
12 -15 0 -7 9 -42 20 -76 11 -36 20 -90 20 -126 0 -74 25 -144 52 -144 10 0
18 7 18 15 0 9 -9 15 -21 15 -17 0 -19 3 -10 14 7 8 13 57 15 113 1 55 6 104
9 110 4 5 9 37 12 69 3 32 7 68 9 79 2 11 -3 32 -11 47 -7 15 -14 31 -15 35 0
5 -12 25 -24 45 -13 21 -24 41 -24 45 0 5 -16 26 -35 48 -19 22 -35 45 -35 51
0 13 -71 79 -94 87 -9 4 -20 17 -25 29 -13 35 -50 62 -116 88 -33 13 -64 29
-70 36 -10 12 -72 32 -130 41 -16 3 -34 8 -40 13 -5 4 -43 6 -83 3 -46 -4 -69
-9 -60 -14 10 -7 10 -9 0 -9 -7 0 -15 7 -18 15 -7 17 -30 20 -39 5z m192 -6
c-3 -3 -12 -4 -19 -1 -8 3 -5 6 6 6 11 1 17 -2 13 -5z m-612 -282 c-13 -12
-15 -13 -9 -2 5 8 7 26 6 40 l-2 25 12 -23 c9 -19 8 -26 -7 -40z m1159 -408
c3 -8 2 -12 -4 -9 -6 3 -10 10 -10 16 0 14 7 11 14 -7z"/>
<path d="M811 3024 c0 -11 3 -14 6 -6 3 7 2 16 -1 19 -3 4 -6 -2 -5 -13z"/>
<path d="M754 2968 l-19 -23 23 19 c21 18 27 26 19 26 -2 0 -12 -10 -23 -22z"/>
<path d="M796 2968 c-8 -31 -8 -43 1 -34 8 8 16 56 10 56 -3 0 -7 -10 -11 -22z"/>
<path d="M701 2908 c-18 -23 -21 -32 -12 -41 9 -9 11 -8 5 6 -5 14 -2 16 12
11 14 -4 16 -3 5 4 -10 8 -9 12 9 25 12 8 18 17 13 20 -4 2 -19 -9 -32 -25z"/>
<path d="M1657 2928 c2 -5 10 -8 18 -8 8 0 16 3 18 8 3 4 -5 7 -18 7 -13 0
-21 -3 -18 -7z"/>
<path d="M511 2884 c0 -11 3 -14 6 -6 3 7 2 16 -1 19 -3 4 -6 -2 -5 -13z"/>
<path d="M1685 2890 c-3 -6 1 -7 9 -4 18 7 21 14 7 14 -6 0 -13 -4 -16 -10z"/>
<path d="M601 2864 c0 -11 3 -14 6 -6 3 7 2 16 -1 19 -3 4 -6 -2 -5 -13z"/>
<path d="M565 2860 c3 -5 8 -10 11 -10 2 0 4 5 4 10 0 6 -5 10 -11 10 -5 0 -7
-4 -4 -10z"/>
<path d="M450 2847 c0 -2 19 -17 43 -32 23 -16 37 -22 30 -14 -12 15 -73 53
-73 46z"/>
<path d="M614 2751 c1 -45 -2 -55 -19 -62 -19 -9 -19 -9 3 -5 16 3 22 -1 22
-12 0 -13 10 -17 38 -18 20 -1 28 0 18 3 -13 4 -15 7 -7 13 9 5 6 9 -8 13 -12
3 -19 1 -15 -4 3 -5 0 -9 -5 -9 -17 0 -13 31 6 54 10 12 11 15 3 9 -28 -26
-34 -9 -14 41 5 13 4 17 -3 13 -6 -4 -13 -1 -16 5 -3 7 -4 -11 -3 -41z"/>
<path d="M651 2784 c0 -11 3 -14 6 -6 3 7 2 16 -1 19 -3 4 -6 -2 -5 -13z"/>
<path d="M540 2785 c0 -2 15 -12 33 -20 l32 -16 -25 20 c-24 20 -40 26 -40 16z"/>
<path d="M1790 2756 c0 -2 7 -9 15 -16 9 -7 15 -8 15 -2 0 5 -7 12 -15 16 -8
3 -15 4 -15 2z"/>
<path d="M491 2746 c2 -2 22 -6 44 -9 28 -5 34 -4 20 3 -19 8 -73 14 -64 6z"/>
<path d="M553 2703 c9 -2 25 -2 35 0 9 3 1 5 -18 5 -19 0 -27 -2 -17 -5z"/>
<path d="M541 2668 c-11 -11 -18 -25 -15 -30 3 -4 -2 -8 -10 -8 -9 0 -16 -4
-16 -10 0 -5 5 -10 11 -10 16 0 36 23 32 37 -5 14 17 29 26 17 6 -8 31 -17 31
-11 0 1 -9 10 -20 20 -19 16 -21 15 -39 -5z"/>
<path d="M1343 2676 c0 -8 17 -19 37 -25 20 -6 51 -24 70 -41 18 -16 41 -30
49 -30 11 0 7 6 -10 18 -14 9 -36 27 -49 40 -13 12 -30 22 -37 22 -8 0 -24 7
-37 15 -19 13 -23 13 -23 1z"/>
<path d="M1500 2683 c0 -6 8 -17 18 -24 16 -13 16 -13 2 6 -8 11 -16 22 -17
24 -2 2 -3 0 -3 -6z"/>
<path d="M500 2660 c-9 -6 -10 -10 -3 -10 6 0 15 5 18 10 8 12 4 12 -15 0z"/>
<path d="M1256 2661 c-16 -6 -14 -10 19 -25 21 -10 55 -21 76 -23 21 -3 44
-12 50 -19 6 -8 16 -14 21 -14 5 0 -2 12 -16 26 -17 20 -30 25 -47 21 -12 -3
-38 1 -58 9 -28 12 -33 17 -21 24 18 11 3 12 -24 1z"/>
<path d="M590 2639 c-14 -4 -20 -8 -15 -8 6 -1 6 -4 -1 -9 -16 -11 -67 -82
-59 -82 4 0 3 -6 -4 -13 -8 -10 -7 -17 1 -25 10 -10 10 -17 1 -31 -14 -22 1
-42 26 -34 13 5 14 3 4 -7 -10 -11 -10 -17 0 -29 9 -12 9 -13 0 -7 -9 5 -11 2
-7 -8 3 -9 10 -16 14 -16 4 0 7 -8 7 -17 0 -41 4 -54 13 -48 6 4 10 -6 11 -22
0 -15 2 -37 4 -48 3 -11 6 -33 9 -50 8 -62 28 -95 57 -95 15 0 29 6 32 13 6
17 -4 191 -12 199 -3 4 -6 -7 -6 -25 0 -18 -3 -47 -7 -65 -4 -18 -4 -31 0 -28
4 2 6 -9 6 -25 -2 -44 -3 -49 -12 -49 -9 0 -27 49 -37 100 -3 19 -13 56 -21
81 -15 47 -27 111 -26 142 1 9 -3 17 -9 17 -5 0 -9 7 -9 15 0 8 5 15 11 15 6
0 9 6 6 14 -3 8 3 22 14 32 10 9 19 21 19 26 0 4 -9 -1 -21 -13 -11 -11 -27
-18 -35 -15 -18 7 -18 -10 0 -21 11 -7 10 -13 -4 -36 -11 -17 -20 -24 -24 -18
-4 6 -3 11 2 11 13 0 22 39 12 45 -5 3 -8 14 -7 25 1 11 5 16 9 12 5 -5 25 6
44 25 20 18 40 30 46 27 7 -4 8 -2 4 5 -6 9 -18 5 -43 -15 -19 -14 -36 -24
-38 -22 -9 9 55 68 74 68 12 0 21 4 21 8 0 10 -17 11 -50 1z"/>
<path d="M1491 2620 c13 -11 29 -23 34 -28 6 -4 14 -9 19 -9 5 -1 12 -5 15
-10 8 -13 121 -76 121 -68 0 3 9 1 20 -5 26 -14 26 2 0 25 -11 10 -17 22 -13
28 3 6 1 7 -6 3 -9 -6 -9 -11 0 -22 7 -9 8 -14 1 -14 -6 0 -18 9 -26 21 -8 12
-19 19 -24 15 -5 -3 -22 6 -37 20 -21 20 -30 22 -41 13 -10 -8 -14 -8 -14 -1
0 16 -41 52 -58 52 -10 0 -7 -7 9 -20z m154 -80 c3 -5 1 -10 -4 -10 -6 0 -11
5 -11 10 0 6 2 10 4 10 3 0 8 -4 11 -10z"/>
<path d="M1070 2619 c0 -5 5 -7 10 -4 6 3 10 8 10 11 0 2 -4 4 -10 4 -5 0 -10
-5 -10 -11z"/>
<path d="M630 2616 c0 -2 7 -7 16 -10 8 -3 12 -2 9 4 -6 10 -25 14 -25 6z"/>
<path d="M945 2560 c-16 -7 -17 -9 -3 -9 9 -1 20 4 23 9 7 11 7 11 -20 0z"/>
<path d="M1900 2567 c0 -2 14 -16 32 -33 l31 -29 -23 33 c-20 27 -40 42 -40
29z"/>
<path d="M1712 2534 c10 -10 20 -16 22 -13 3 3 -5 11 -17 18 -21 13 -21 12 -5
-5z"/>
<path d="M1430 2536 c0 -2 7 -7 16 -10 8 -3 12 -2 9 4 -6 10 -25 14 -25 6z"/>
<path d="M1215 2480 c-3 -5 -1 -10 4 -10 6 0 11 5 11 10 0 6 -2 10 -4 10 -3 0
-8 -4 -11 -10z"/>
<path d="M1466 2463 c-6 -14 -5 -15 5 -6 7 7 10 15 7 18 -3 3 -9 -2 -12 -12z"/>
<path d="M1687 2429 c4 -13 8 -18 11 -10 2 7 -1 18 -6 23 -8 8 -9 4 -5 -13z"/>
<path d="M1321 2366 c-10 -12 -8 -13 8 -9 12 3 21 9 21 14 0 14 -16 11 -29 -5z"/>
<path d="M1175 2350 c-3 -5 1 -10 10 -10 9 0 13 5 10 10 -3 6 -8 10 -10 10 -2
0 -7 -4 -10 -10z"/>
<path d="M1280 2319 c0 -5 5 -7 10 -4 6 3 10 8 10 11 0 2 -4 4 -10 4 -5 0 -10
-5 -10 -11z"/>
<path d="M1578 2313 c7 -3 16 -2 19 1 4 3 -2 6 -13 5 -11 0 -14 -3 -6 -6z"/>
<path d="M785 2290 c3 -5 8 -10 11 -10 2 0 4 5 4 10 0 6 -5 10 -11 10 -5 0 -7
-4 -4 -10z"/>
<path d="M1640 2291 c-8 -6 -17 -8 -20 -6 -4 2 -7 -1 -7 -8 0 -7 15 -12 34
-13 19 0 42 -9 53 -20 34 -33 50 -45 50 -35 0 14 -69 71 -86 71 -8 0 -12 5 -9
10 8 12 4 12 -15 1z"/>
<path d="M1325 2279 c-4 -6 -5 -12 -2 -15 2 -3 7 2 10 11 7 17 1 20 -8 4z"/>
<path d="M867 2263 c-54 -28 -91 -83 -56 -83 6 0 8 4 5 9 -3 5 5 17 19 27 13
10 22 21 19 26 -8 13 21 9 35 -4 10 -11 11 -9 5 6 -5 13 -4 17 4 12 7 -4 12
-3 12 3 0 17 -14 18 -43 4z"/>
<path d="M1490 2254 c-14 -7 -33 -14 -42 -14 -11 0 -15 -5 -12 -15 5 -11 1
-14 -12 -9 -18 5 -18 5 -1 -6 15 -10 22 -8 38 6 16 15 22 16 28 5 6 -8 14 -10
22 -5 12 6 12 5 1 -8 -12 -15 -11 -16 17 -5 16 6 28 13 26 17 -2 3 13 5 33 4
20 -1 52 1 71 4 l36 6 -45 9 c-25 6 -62 9 -82 9 -21 -1 -38 3 -38 8 0 13 -9
11 -40 -6z"/>
<path d="M977 2229 c-92 -20 -108 -30 -46 -28 38 1 107 -14 174 -36 11 -4 5 2
-13 14 -18 12 -41 21 -52 21 -10 0 -21 4 -24 8 -3 5 18 5 46 1 28 -5 55 -14
60 -21 5 -9 8 -6 8 9 0 16 5 20 23 17 20 -4 21 -4 2 5 -11 5 -36 10 -57 10
-20 1 -38 5 -40 9 -1 5 -38 1 -81 -9z"/>
<path d="M1690 2216 c0 -1 9 -9 20 -19 15 -13 20 -14 20 -3 0 7 -9 16 -20 19
-11 3 -20 4 -20 3z"/>
<path d="M1470 2200 c0 -5 5 -10 10 -10 6 0 10 5 10 10 0 6 -4 10 -10 10 -5 0
-10 -4 -10 -10z"/>
<path d="M1363 2184 c16 -8 31 -13 35 -10 8 8 1 12 -33 20 l-30 6 28 -16z"/>
<path d="M848 2148 c-89 -6 -138 -22 -146 -47 -3 -8 0 -11 7 -7 6 4 11 3 11
-3 0 -5 -5 -13 -10 -16 -6 -4 -7 -11 -4 -17 3 -5 11 1 18 14 21 43 60 53 201
53 97 0 146 -5 192 -19 74 -22 97 -44 95 -91 -1 -20 3 -33 8 -30 5 3 6 13 3
23 -6 15 -5 15 10 3 15 -12 17 -11 17 3 0 13 7 16 29 13 43 -7 48 -12 82 -80
59 -116 89 -138 184 -136 43 1 35 4 -36 14 -26 3 -55 13 -65 21 -18 15 -18 15
1 6 51 -25 191 -31 289 -12 51 9 71 18 87 38 l20 26 -7 -54 c-7 -51 -6 -54 9
-41 13 10 17 10 17 1 0 -6 -9 -14 -19 -17 -18 -5 -38 -49 -27 -60 9 -9 66 81
66 105 0 18 -3 22 -12 14 -10 -8 -12 8 -8 76 3 47 10 87 15 89 7 2 8 -22 5
-67 -4 -59 -3 -68 7 -53 7 9 13 40 13 69 0 29 3 59 6 67 3 10 -3 16 -20 19
-18 4 -23 1 -20 -11 3 -9 -5 4 -16 29 -12 25 -25 47 -31 48 -5 2 -6 9 -2 14 4
7 -2 9 -15 6 -12 -4 -22 -1 -22 4 0 7 -19 8 -52 4 -37 -5 -48 -3 -38 4 12 8
10 10 -10 10 -69 0 -205 -24 -288 -53 -88 -29 -95 -30 -140 -18 -26 8 -55 14
-64 15 -10 0 -18 4 -18 7 0 9 -95 30 -175 38 -33 3 -99 3 -147 -1z m912 -26
c26 -5 36 -13 37 -29 2 -18 -6 -26 -34 -38 -43 -18 -63 -14 -63 14 0 11 -9 25
-19 31 -31 16 -35 12 -10 -11 21 -18 21 -20 4 -14 -54 19 -93 24 -127 14 -43
-11 -45 -15 -22 -47 22 -32 60 -29 82 7 15 25 20 27 35 16 16 -11 15 -14 -6
-37 -13 -14 -30 -28 -38 -31 -11 -4 -10 -6 3 -6 9 -1 28 11 42 26 22 24 28 25
52 15 20 -10 30 -10 40 -1 11 9 14 8 14 -5 0 -15 -11 -20 -37 -17 -9 1 -9 -7
-2 -31 5 -18 10 -50 11 -70 1 -20 5 -35 10 -32 11 7 10 47 -2 79 -8 22 -7 27
15 37 24 11 42 38 25 38 -6 0 -10 4 -10 8 0 5 7 9 16 9 14 0 15 -11 12 -69 -2
-37 0 -62 4 -55 4 7 8 37 10 66 2 31 8 56 16 58 15 6 16 30 1 35 -7 2 -10 10
-8 17 3 8 10 3 19 -14 22 -41 0 -172 -34 -202 -30 -25 -108 -39 -210 -35 -100
3 -141 16 -165 55 -24 39 -44 123 -37 153 6 24 59 50 126 63 55 11 202 12 250
3z m-522 -52 c7 0 12 -6 12 -12 0 -8 3 -9 8 -3 4 6 26 10 50 10 26 -1 37 2 30
7 -9 6 -7 8 7 6 15 -2 20 -12 23 -43 l3 -39 -25 23 c-23 22 -57 29 -96 20 -8
-2 -15 -1 -15 3 0 3 -11 19 -25 35 -17 19 -18 22 -4 10 11 -9 26 -17 32 -17z
m344 -3 c-7 -8 -9 -17 -5 -20 3 -4 -3 -7 -15 -7 -13 0 -22 6 -22 15 0 14 12
19 33 16 4 0 7 4 7 11 0 6 3 8 6 5 4 -4 2 -13 -4 -20z"/>
<path d="M1618 2113 c7 -3 16 -2 19 1 4 3 -2 6 -13 5 -11 0 -14 -3 -6 -6z"/>
<path d="M1476 2055 c-3 -8 -1 -15 4 -15 6 0 10 7 10 15 0 8 -2 15 -4 15 -2 0
-6 -7 -10 -15z"/>
<path d="M1441 2042 c-17 -31 -13 -40 5 -14 9 13 14 26 11 29 -3 2 -10 -4 -16
-15z"/>
<path d="M1450 2010 c0 -6 11 -8 28 -4 39 10 40 14 4 14 -18 0 -32 -5 -32 -10z"/>
<path d="M1638 1974 c-3 -3 -20 -6 -37 -6 -17 -1 -28 -5 -25 -9 6 -10 65 0 79
12 5 6 5 9 -1 9 -6 0 -13 -3 -16 -6z"/>
<path d="M1511 1932 c7 -12 20 -24 27 -27 21 -8 9 17 -17 34 -23 15 -24 15
-10 -7z"/>
<path d="M960 2085 c-76 -15 -140 -52 -140 -79 0 -6 7 -2 15 9 10 12 27 19 49
19 23 0 33 4 32 15 -2 26 30 23 42 -4 15 -33 64 -35 86 -3 l16 22 20 -21 20
-22 -28 -4 -27 -4 29 -2 c16 0 35 -9 43 -18 13 -17 13 -16 7 6 -3 13 -7 30 -8
37 -3 18 -38 43 -74 53 -15 4 -52 3 -82 -4z m70 -9 c0 -3 -4 -8 -10 -11 -5 -3
-10 -1 -10 4 0 6 5 11 10 11 6 0 10 -2 10 -4z m-40 -17 c5 9 11 7 20 -4 12
-15 11 -17 -10 -13 -13 1 -25 9 -26 16 -2 8 0 8 3 1 4 -8 7 -8 13 0z"/>
<path d="M620 2070 c0 -5 3 -9 8 -9 23 4 52 -2 52 -11 0 -5 -13 -8 -30 -6 -16
2 -30 -1 -30 -5 0 -5 3 -9 8 -9 4 0 15 -7 25 -14 13 -10 21 -38 29 -107 5 -52
10 -103 10 -114 -1 -10 4 -25 9 -32 6 -6 8 -16 5 -21 -3 -6 1 -15 9 -22 16
-13 16 -9 -6 103 -5 26 -9 67 -8 90 l1 42 9 -41 c6 -23 18 -49 28 -58 44 -40
330 -48 398 -13 18 10 36 17 40 16 8 -2 73 107 73 122 0 17 -19 9 -25 -11 -4
-11 -11 -18 -16 -15 -5 3 -6 -1 -3 -9 3 -9 1 -16 -5 -16 -6 0 -11 -8 -11 -17
0 -25 -59 -62 -106 -67 -21 -3 -62 -7 -89 -10 -66 -8 -216 11 -234 29 -11 11
-14 38 -12 116 2 78 0 99 -10 94 -8 -6 -10 -32 -6 -94 3 -50 2 -78 -3 -66 -5
11 -9 34 -9 52 -1 17 -6 35 -11 38 -7 4 -9 -3 -6 -19 3 -14 0 -26 -5 -26 -5 0
-9 8 -9 18 0 10 -5 23 -12 30 -8 8 -8 15 1 25 18 23 3 47 -30 47 -16 0 -29 -4
-29 -10z"/>
<path d="M958 1993 c7 -3 16 -2 19 1 4 3 -2 6 -13 5 -11 0 -14 -3 -6 -6z"/>
<path d="M596 1974 c-3 -9 -6 -24 -6 -35 0 -21 38 -101 64 -134 15 -19 15 -18
9 15 -4 19 -12 41 -20 48 -7 8 -11 17 -8 22 3 5 1 11 -5 15 -5 3 -10 18 -10
32 0 19 4 24 17 19 15 -6 15 -4 -2 14 -22 24 -31 25 -39 4z"/>
<path d="M1046 1977 c3 -10 9 -15 12 -12 3 3 0 11 -7 18 -10 9 -11 8 -5 -6z"/>
<path d="M651 1884 c0 -11 3 -14 6 -6 3 7 2 16 -1 19 -3 4 -6 -2 -5 -13z"/>
<path d="M928 1793 c7 -3 16 -2 19 1 4 3 -2 6 -13 5 -11 0 -14 -3 -6 -6z"/>
<path d="M1131 1754 c0 -11 3 -14 6 -6 3 7 2 16 -1 19 -3 4 -6 -2 -5 -13z"/>
<path d="M1420 1762 c0 -4 8 -15 18 -23 9 -9 22 -25 28 -35 10 -17 11 -16 7 8
-5 24 -53 70 -53 50z"/>
<path d="M1786 1744 c4 -18 -2 -57 -12 -90 -9 -33 -18 -63 -18 -69 -6 -54 -74
-216 -96 -230 -6 -3 -8 -11 -5 -16 4 -5 2 -9 -4 -9 -6 0 -8 -23 -4 -57 2 -32
6 -74 7 -95 1 -20 7 -42 13 -50 5 -7 13 -24 16 -38 8 -34 68 -96 101 -104 15
-4 24 -11 21 -16 -4 -6 11 -10 34 -10 50 0 51 -3 10 -123 -37 -110 -91 -220
-130 -265 -16 -18 -29 -39 -29 -46 0 -26 -172 -197 -250 -247 -73 -48 -77 -52
-66 -75 10 -21 11 -22 14 -5 2 11 45 51 95 90 122 93 225 213 301 352 37 67
106 257 106 291 0 19 16 25 22 7 3 -8 19 -15 49 -18 32 -4 -4 -165 -66 -299
-62 -131 -125 -221 -239 -339 -70 -73 -123 -118 -181 -153 -46 -28 -87 -50
-93 -50 -24 0 -102 42 -96 52 4 6 3 8 -3 5 -16 -10 -114 43 -106 56 3 7 3 9
-2 5 -4 -4 -15 -3 -25 2 -32 17 -105 83 -102 92 1 5 -2 7 -8 3 -5 -3 -10 -10
-10 -14 0 -26 308 -211 351 -211 32 0 171 92 247 164 40 39 102 107 138 153
62 79 185 305 190 348 4 35 23 75 36 75 10 0 10 2 0 9 -18 11 -5 81 14 81 17
0 18 16 3 26 -7 4 -26 9 -42 10 -17 2 -41 11 -53 19 -13 8 -30 15 -39 15 -23
0 -105 44 -143 77 -27 22 -36 41 -47 93 -25 117 -20 174 24 265 22 44 54 133
71 197 29 109 30 119 16 145 l-15 28 5 -31z"/>
<path d="M1625 1740 c3 -5 10 -10 16 -10 5 0 9 5 9 10 0 6 -7 10 -16 10 -8 0
-12 -4 -9 -10z"/>
<path d="M1106 1708 c-10 -39 -7 -73 10 -96 8 -12 12 -28 8 -35 -6 -9 -4 -9 8
1 11 9 18 10 23 2 8 -13 25 -13 25 0 0 6 -7 10 -15 10 -8 0 -24 10 -35 23 -21
22 -23 54 -5 100 4 9 3 17 -3 17 -5 0 -12 -10 -16 -22z"/>
<path d="M1040 1660 c0 -5 5 -10 10 -10 6 0 10 5 10 10 0 6 -4 10 -10 10 -5 0
-10 -4 -10 -10z"/>
<path d="M1176 1621 c-3 -5 6 -12 21 -16 22 -5 24 -8 12 -17 -11 -8 -11 -9 3
-4 10 3 20 1 23 -4 8 -13 55 -13 75 0 22 14 5 23 -19 11 -16 -9 -28 -8 -50 4
-16 8 -33 19 -36 25 -8 12 -22 13 -29 1z"/>
<path d="M1375 1621 c-3 -5 4 -13 16 -16 17 -6 19 -9 8 -16 -11 -7 -9 -9 8 -9
27 0 35 21 14 37 -19 15 -38 16 -46 4z"/>
<path d="M1630 1550 c0 -5 5 -10 10 -10 6 0 10 5 10 10 0 6 -4 10 -10 10 -5 0
-10 -4 -10 -10z"/>
<path d="M1300 1498 c0 -48 1 -51 16 -36 11 11 14 23 8 39 -4 13 -7 30 -6 37
2 6 -2 12 -8 12 -5 0 -10 -23 -10 -52z"/>
<path d="M1156 1502 c-2 -4 -1 -14 4 -22 7 -11 9 -9 7 8 -1 24 -3 26 -11 14z"/>
<path d="M1432 1505 c4 -4 0 -14 -10 -21 -9 -7 -12 -14 -6 -14 6 0 17 6 23 14
9 11 9 16 -1 22 -7 4 -10 4 -6 -1z"/>
<path d="M1448 1462 c-17 -7 -17 -8 0 -18 15 -10 18 -8 19 7 1 11 1 19 0 18
-1 0 -10 -4 -19 -7z"/>
<path d="M1077 1447 c-3 -8 1 -14 8 -14 7 0 11 6 8 14 -3 7 -6 13 -8 13 -2 0
-5 -6 -8 -13z"/>
<path d="M1040 1430 c0 -5 5 -10 11 -10 5 0 7 5 4 10 -3 6 -8 10 -11 10 -2 0
-4 -4 -4 -10z"/>
<path d="M1255 1430 c3 -5 11 -10 16 -10 6 0 7 5 4 10 -3 6 -11 10 -16 10 -6
0 -7 -4 -4 -10z"/>
<path d="M1326 1432 c-3 -4 11 -9 30 -9 18 -1 31 3 28 8 -7 11 -51 12 -58 1z"/>
<path d="M1428 1398 c11 -14 8 -16 -25 -16 -194 0 -352 -11 -313 -22 14 -4 41
-5 60 -3 19 1 113 5 209 8 96 3 176 7 179 9 2 3 1 9 -2 15 -4 6 -16 6 -36 -1
-25 -8 -36 -7 -58 8 -21 14 -24 14 -14 2z"/>
<path d="M844 1375 c20 -41 45 -73 46 -58 0 7 -7 21 -15 30 -8 10 -22 27 -30
38 -15 18 -15 18 -1 -10z"/>
<path d="M1443 1319 c-2 -23 3 -25 10 -4 4 8 3 16 -1 19 -4 3 -9 -4 -9 -15z"/>
<path d="M895 1289 c-4 -6 -5 -12 -2 -15 2 -3 7 2 10 11 7 17 1 20 -8 4z"/>
<path d="M1300 1262 c-32 -4 -33 -5 -10 -11 31 -9 72 -2 64 10 -3 5 -8 8 -12
7 -4 0 -23 -3 -42 -6z"/>
<path d="M893 1229 c-2 -23 3 -25 10 -4 4 8 3 16 -1 19 -4 3 -9 -4 -9 -15z"/>
<path d="M1200 1180 c0 -5 5 -10 11 -10 5 0 7 5 4 10 -3 6 -8 10 -11 10 -2 0
-4 -4 -4 -10z"/>
<path d="M895 1169 c-4 -6 -5 -12 -2 -15 2 -3 7 2 10 11 7 17 1 20 -8 4z"/>
<path d="M1306 1097 c3 -10 9 -15 12 -12 3 3 0 11 -7 18 -10 9 -11 8 -5 -6z"/>
<path d="M1475 1079 c-22 -15 -48 -28 -57 -29 -9 0 -19 -4 -22 -8 -8 -14 -70
-12 -78 1 -5 8 -8 6 -8 -6 0 -17 -7 -18 -77 -13 l-78 5 45 -14 c84 -27 245 9
296 66 14 15 19 17 26 7 5 -9 8 -10 8 -1 0 23 -15 21 -55 -8z"/>
<path d="M1068 1093 c7 -3 16 -2 19 1 4 3 -2 6 -13 5 -11 0 -14 -3 -6 -6z"/>
<path d="M1430 980 c-8 -5 -12 -12 -9 -15 4 -3 12 1 19 10 14 17 11 19 -10 5z"/>
<path d="M815 940 c-10 -11 -14 -20 -9 -20 5 0 15 9 22 20 7 11 11 20 9 20 -2
0 -12 -9 -22 -20z"/>
<path d="M511 914 c0 -11 3 -14 6 -6 3 7 2 16 -1 19 -3 4 -6 -2 -5 -13z"/>
<path d="M1581 914 c0 -11 3 -14 6 -6 3 7 2 16 -1 19 -3 4 -6 -2 -5 -13z"/>
<path d="M2032 903 c23 -48 33 -63 44 -63 8 0 11 7 8 18 -5 14 -3 14 10 -2 14
-17 20 -15 18 5 -1 4 8 4 20 1 11 -3 26 -18 32 -34 6 -15 14 -28 18 -28 4 0 8
-9 8 -21 0 -11 4 -18 9 -15 5 3 7 16 3 28 -4 16 -2 19 8 13 9 -5 11 -4 6 4 -4
6 -12 8 -18 5 -6 -4 -8 -2 -4 4 3 6 2 13 -4 17 -6 4 -8 10 -5 14 2 4 -15 14
-38 20 -23 7 -57 19 -75 27 -37 16 -45 17 -40 7z"/>
<path d="M721 888 c0 -7 4 -22 8 -33 7 -17 9 -15 13 13 3 22 1 32 -9 32 -7 0
-13 -6 -12 -12z"/>
<path d="M465 869 c-22 -10 -46 -19 -53 -19 -7 0 -29 -10 -50 -23 -20 -13 -58
-31 -84 -41 -26 -10 -50 -22 -54 -27 -10 -16 47 2 115 37 34 18 75 35 90 39
14 3 40 17 56 30 36 29 33 29 -20 4z"/>
<path d="M636 845 c-3 -8 -1 -15 3 -15 5 0 11 7 15 15 3 8 1 15 -3 15 -5 0
-11 -7 -15 -15z"/>
<path d="M585 833 c-49 -25 -103 -64 -109 -78 -3 -9 0 -12 10 -8 7 3 14 10 14
16 0 6 3 8 6 5 3 -3 17 5 31 18 15 14 37 27 49 30 12 3 25 12 28 20 3 8 4 14
3 13 -1 -1 -15 -8 -32 -16z"/>
<path d="M2225 827 c16 -14 33 -23 37 -21 4 3 21 -9 38 -26 33 -34 34 -34 60
-20 15 8 23 6 37 -8 10 -10 27 -24 37 -32 18 -14 19 -13 13 3 -4 10 -4 17 0
15 41 -19 89 -43 92 -45 2 -2 5 -11 6 -21 1 -9 6 -25 10 -35 4 -10 2 -23 -4
-31 -13 -15 -9 -97 10 -201 20 -108 8 -215 -29 -258 -8 -9 -12 -20 -9 -24 4
-3 -2 -12 -13 -20 -11 -8 -20 -20 -20 -26 0 -8 3 -7 9 2 6 9 10 10 12 2 3 -7
13 -2 27 13 17 20 18 26 7 26 -12 0 -11 7 7 32 13 18 25 34 28 36 3 1 4 20 2
42 -4 36 -2 40 19 40 23 -1 23 -1 5 -15 -21 -16 -10 -21 12 -6 9 6 12 24 8 62
-5 60 -13 99 -21 107 -8 8 -6 -28 4 -69 6 -25 5 -36 -3 -36 -11 0 -17 22 -20
75 0 12 -5 22 -11 22 -5 1 2 8 18 16 15 8 27 17 27 20 0 3 -4 3 -9 0 -17 -11
-40 6 -46 35 -8 34 3 59 16 38 6 -10 8 -7 6 8 0 12 -6 21 -12 20 -5 -1 -10 7
-10 18 0 11 -4 23 -10 27 -6 5 -5 8 4 8 9 0 12 8 9 25 -3 13 0 26 6 29 7 3 7
5 -1 5 -7 1 -13 5 -13 10 0 4 11 6 25 3 14 -2 22 -9 18 -15 -3 -5 -1 -7 4 -4
15 9 51 -25 45 -43 -4 -13 -3 -13 11 -2 13 12 18 10 29 -7 7 -12 20 -21 29
-21 17 0 28 -22 35 -70 12 -81 13 -90 1 -84 -7 3 -3 -2 7 -10 11 -9 14 -16 7
-16 -7 0 -9 -5 -5 -11 4 -7 7 -36 6 -65 0 -34 4 -54 12 -54 8 0 8 -2 0 -8 -6
-4 -14 -41 -18 -82 -3 -41 -10 -95 -16 -120 -12 -58 -12 -60 0 -60 6 0 10 5
10 12 0 6 8 20 17 30 9 11 18 27 19 36 2 14 1 14 -12 -2 -8 -11 -14 -15 -14
-9 0 7 6 18 14 26 11 11 12 17 3 26 -7 7 -8 11 0 11 6 0 13 9 16 20 3 12 1 18
-5 14 -6 -4 -8 2 -6 12 2 11 10 18 17 16 7 -1 10 2 6 8 -3 6 -11 7 -17 4 -8
-5 -9 -1 -4 12 16 40 19 84 6 84 -10 0 -10 3 0 15 7 9 8 15 2 15 -5 0 -8 8 -5
18 2 10 -2 46 -10 80 -8 34 -11 65 -7 67 11 7 53 -122 53 -159 -1 -20 2 -24 8
-15 8 13 13 6 10 -13 0 -5 3 -8 8 -8 11 0 27 -84 22 -114 -2 -14 2 -17 14 -13
11 5 14 3 9 -5 -5 -7 -9 -47 -10 -90 -3 -74 -2 -78 18 -78 21 0 21 1 3 13 -14
11 -15 16 -5 22 9 5 11 4 6 -3 -4 -7 -3 -12 2 -12 10 0 10 65 0 75 -3 3 -4 23
-2 45 2 22 -1 42 -6 45 -6 4 -8 10 -5 15 3 5 1 11 -4 14 -5 3 -7 15 -4 25 3
10 0 22 -6 25 -6 4 -11 15 -11 24 0 9 -6 28 -13 42 -8 14 -16 39 -20 56 -3 16
-24 62 -46 102 -23 39 -41 76 -41 81 0 5 -15 20 -32 32 -18 13 -51 38 -72 56
-21 18 -60 40 -85 49 -25 9 -113 44 -196 76 -192 77 -185 75 -150 45z m395
-537 c0 -5 -7 -10 -15 -10 -8 0 -15 5 -15 10 0 6 7 10 15 10 8 0 15 -4 15 -10z"/>
<path d="M740 827 c0 -13 49 -98 85 -147 50 -67 91 -104 100 -89 5 7 4 10 -3
5 -12 -7 -85 85 -97 122 -3 12 -10 20 -15 17 -5 -3 -18 11 -29 32 -26 48 -41
70 -41 60z"/>
<path d="M2030 815 c0 -8 2 -15 4 -15 2 0 6 7 10 15 3 8 1 15 -4 15 -6 0 -10
-7 -10 -15z"/>
<path d="M2091 813 c7 -12 15 -20 18 -17 3 2 -3 12 -13 22 -17 16 -18 16 -5
-5z"/>
<path d="M642 780 c6 -23 12 -39 14 -37 6 6 -9 77 -16 77 -4 0 -3 -18 2 -40z"/>
<path d="M565 791 c-8 -14 -2 -71 7 -71 4 0 8 18 8 40 0 40 -4 48 -15 31z"/>
<path d="M727 783 c-4 -3 -7 -13 -7 -22 1 -13 3 -13 11 2 11 19 8 33 -4 20z"/>
<path d="M978 769 c-3 -8 0 -23 8 -34 8 -10 14 -15 14 -9 0 5 5 2 10 -6 6 -9
10 -10 10 -3 0 6 -5 15 -11 18 -6 4 -14 16 -18 28 -6 15 -9 17 -13 6z"/>
<path d="M1875 769 c-4 -6 -5 -12 -2 -15 2 -3 7 2 10 11 7 17 1 20 -8 4z"/>
<path d="M1980 766 c0 -8 7 -17 16 -20 13 -5 14 -4 6 7 -7 8 -9 17 -5 20 3 4
1 7 -5 7 -7 0 -12 -6 -12 -14z"/>
<path d="M2167 773 c-4 -3 -7 -11 -7 -17 0 -6 5 -5 12 2 6 6 9 14 7 17 -3 3
-9 2 -12 -2z"/>
<path d="M2215 749 c-6 -28 -8 -29 -20 -12 -13 17 -14 16 -10 -7 3 -14 6 -46
7 -72 2 -27 4 -48 5 -48 4 0 33 58 33 66 0 3 -6 4 -14 1 -9 -4 -13 2 -12 16 1
12 7 21 13 20 7 -1 9 6 5 19 -3 14 -1 19 6 14 16 -10 22 7 7 21 -11 10 -15 7
-20 -18z"/>
<path d="M128 742 c-93 -32 -103 -47 -15 -22 80 23 97 30 97 41 0 5 -1 9 -2 8
-2 -1 -38 -13 -80 -27z"/>
<path d="M414 751 c-25 -11 -41 -25 -41 -36 0 -15 2 -16 11 -3 6 8 16 16 21
18 26 7 55 24 55 32 0 10 2 11 -46 -11z"/>
<path d="M2091 733 c-1 -13 4 -23 10 -23 8 0 9 -17 6 -49 -4 -37 -1 -59 14
-88 21 -40 25 -68 9 -58 -6 3 -7 -1 -4 -9 8 -20 24 -11 24 13 0 9 6 23 13 30
10 10 9 11 -3 6 -11 -4 -15 2 -16 22 0 45 -14 125 -24 142 -5 9 -10 12 -10 6
-1 -5 -5 -1 -10 10 -8 19 -9 19 -9 -2z"/>
<path d="M1997 716 c-3 -8 2 -20 11 -27 14 -11 15 -11 5 0 -6 7 -9 20 -6 27 3
8 3 14 0 14 -3 0 -7 -6 -10 -14z"/>
<path d="M316 711 c-3 -5 1 -17 9 -27 14 -17 14 -17 9 -1 -4 11 -2 17 6 15 7
-2 14 2 16 7 5 12 -33 18 -40 6z"/>
<path d="M15 700 c-3 -5 1 -10 10 -10 9 0 13 5 10 10 -3 6 -8 10 -10 10 -2 0
-7 -4 -10 -10z"/>
<path d="M2262 647 c-2 -34 -3 -73 -4 -87 -1 -32 19 -125 31 -148 5 -10 12
-56 16 -102 4 -47 13 -111 21 -143 8 -33 11 -64 7 -69 -3 -6 -1 -8 4 -5 12 7
33 -42 33 -74 0 -12 7 -19 19 -19 17 0 18 8 18 80 -1 44 -5 80 -10 80 -4 0 -5
5 -1 12 12 19 14 57 3 63 -8 6 -14 -23 -10 -54 2 -8 -2 -10 -11 -5 -11 6 -11
5 0 -8 10 -13 9 -16 -10 -21 -29 -8 -31 -5 -32 50 -1 27 -5 51 -11 56 -6 4 -5
10 4 16 9 6 10 10 2 16 -7 3 -11 23 -10 43 2 20 -3 48 -10 61 -7 12 -11 32 -8
42 3 10 1 17 -4 14 -10 -7 -23 40 -15 54 4 5 1 13 -6 17 -8 5 -4 10 10 15 12
5 22 14 21 21 0 10 -2 10 -6 1 -2 -7 -11 -13 -18 -13 -16 0 -15 48 2 55 8 2
11 15 7 32 -3 15 -6 36 -8 46 -1 9 -6 21 -12 27 -5 5 -10 -14 -12 -53z m124
-512 c-19 -14 -13 -40 7 -29 8 5 8 3 0 -7 -7 -7 -13 -22 -13 -33 0 -23 -8 -17
-13 10 -1 10 -6 24 -9 29 -8 13 2 30 22 38 24 9 26 7 6 -8z"/>
<path d="M190 655 c-52 -25 -102 -45 -110 -45 -20 0 -84 -39 -76 -47 3 -3 11
-1 18 4 24 19 70 25 80 11 7 -9 8 -7 5 8 -3 17 3 23 42 34 25 8 53 15 61 15
33 3 60 17 54 27 -5 7 -1 9 9 5 9 -3 16 -3 16 1 -3 20 2 25 12 12 9 -12 10
-12 7 -1 -7 24 -19 22 -118 -24z m40 1 c0 -2 -7 -7 -16 -10 -8 -3 -12 -2 -9 4
6 10 25 14 25 6z"/>
<path d="M2420 691 c0 -6 4 -13 10 -16 6 -3 7 1 4 9 -7 18 -14 21 -14 7z"/>
<path d="M2496 692 c-3 -5 1 -9 9 -9 8 0 12 4 9 9 -3 4 -7 8 -9 8 -2 0 -6 -4
-9 -8z"/>
<path d="M2323 675 c0 -8 4 -12 9 -9 4 3 8 9 8 15 0 5 -4 9 -8 9 -5 0 -9 -7
-9 -15z"/>
<path d="M2050 669 c0 -5 5 -7 10 -4 6 3 10 8 10 11 0 2 -4 4 -10 4 -5 0 -10
-5 -10 -11z"/>
<path d="M2005 660 c-3 -6 1 -7 9 -4 18 7 21 14 7 14 -6 0 -13 -4 -16 -10z"/>
<path d="M414 648 c-4 -7 -4 -10 1 -6 4 4 15 2 24 -5 14 -11 14 -10 2 6 -16
20 -18 21 -27 5z"/>
<path d="M2004 635 c-10 -8 -14 -14 -9 -15 15 0 40 18 34 24 -3 3 -14 -1 -25
-9z"/>
<path d="M2410 624 c0 -8 5 -12 10 -9 6 4 8 11 5 16 -9 14 -15 11 -15 -7z"/>
<path d="M493 605 c0 -8 4 -12 9 -9 5 3 6 10 3 15 -9 13 -12 11 -12 -6z"/>
<path d="M1077 599 c6 -23 9 -24 16 -5 3 8 0 17 -7 19 -10 4 -12 -1 -9 -14z"/>
<path d="M2011 606 c-9 -11 -9 -16 -1 -21 7 -4 10 -16 7 -26 -3 -11 -2 -17 3
-14 12 8 19 44 9 51 -5 3 -7 10 -4 15 9 14 -1 11 -14 -5z"/>
<path d="M739 598 c7 -9 9 -23 5 -30 -4 -7 -3 -10 1 -5 5 4 17 0 27 -10 33
-29 24 -9 -11 27 -19 19 -29 27 -22 18z"/>
<path d="M1040 591 c0 -10 19 -25 25 -20 1 2 -3 10 -11 17 -8 7 -14 8 -14 3z"/>
<path d="M2414 592 c-16 -10 -37 -53 -30 -60 3 -3 6 -1 6 5 0 5 11 22 25 37
23 25 23 34 -1 18z"/>
<path d="M495 561 c-3 -5 -2 -12 3 -15 5 -3 9 1 9 9 0 17 -3 19 -12 6z"/>
<path d="M611 554 c0 -11 3 -14 6 -6 3 7 2 16 -1 19 -3 4 -6 -2 -5 -13z"/>
<path d="M937 559 c7 -7 15 -10 18 -7 3 3 -2 9 -12 12 -14 6 -15 5 -6 -5z"/>
<path d="M1637 555 c-10 -7 -14 -16 -9 -19 5 -3 15 1 22 9 17 21 9 27 -13 10z"/>
<path d="M1896 552 c-2 -4 4 -8 14 -8 10 0 16 4 14 8 -3 4 -9 8 -14 8 -5 0
-11 -4 -14 -8z"/>
<path d="M432 493 c-8 -32 -27 -112 -43 -178 -17 -66 -31 -128 -32 -137 -1
-10 -4 -18 -7 -18 -3 0 -5 -11 -5 -25 0 -48 22 -28 29 26 4 30 18 96 67 315 6
28 10 57 8 63 -3 7 -10 -14 -17 -46z"/>
<path d="M1080 546 c0 -2 9 -6 20 -9 11 -3 18 -1 14 4 -5 9 -34 13 -34 5z"/>
<path d="M2464 535 c-3 -8 -4 -20 -2 -27 3 -7 7 -1 10 15 6 29 1 36 -8 12z"/>
<path d="M710 530 c-8 -5 -10 -10 -5 -10 6 0 17 5 25 10 8 5 11 10 5 10 -5 0
-17 -5 -25 -10z"/>
<path d="M1515 530 c-3 -5 -1 -10 4 -10 6 0 11 5 11 10 0 6 -2 10 -4 10 -3 0
-8 -4 -11 -10z"/>
<path d="M1585 529 c-4 -6 -5 -12 -2 -15 2 -3 7 2 10 11 7 17 1 20 -8 4z"/>
<path d="M2397 527 c-3 -8 1 -14 8 -14 7 0 11 6 8 14 -3 7 -6 13 -8 13 -2 0
-5 -6 -8 -13z"/>
<path d="M2668 520 c12 -39 13 -60 4 -60 -6 0 -10 -23 -10 -52 0 -29 -3 -116
-7 -193 -8 -139 -3 -176 9 -80 4 28 9 84 11 125 6 82 11 115 20 130 4 6 3 9
-2 8 -4 -2 -8 2 -8 7 0 6 2 9 5 8 3 -1 5 23 6 53 0 37 -3 54 -12 54 -7 0 -14
3 -17 8 -2 4 -2 0 1 -8z"/>
<path d="M970 522 c0 -4 14 -19 30 -34 37 -32 39 -23 5 15 -27 28 -35 33 -35
19z"/>
<path d="M1909 528 c-6 -15 -2 -65 6 -70 6 -5 6 -8 -2 -8 -8 0 -10 -15 -7 -52
3 -28 7 -55 10 -59 2 -4 0 -10 -6 -14 -7 -4 -7 -12 0 -26 8 -13 7 -25 -1 -40
-8 -15 -8 -19 0 -15 6 4 11 2 11 -3 0 -6 9 -3 20 6 17 15 18 19 5 26 -8 4 -14
18 -14 30 0 12 -2 34 -4 50 -2 15 0 27 6 27 6 0 6 5 0 13 -14 18 -14 57 0 57
9 0 9 2 -1 8 -7 5 -10 22 -8 40 2 18 -1 32 -5 32 -5 0 -9 -1 -10 -2z"/>
<path d="M2310 523 c0 -6 5 -15 10 -18 6 -4 8 -11 5 -16 -4 -5 -1 -9 4 -9 15
0 14 13 -4 36 -8 10 -15 14 -15 7z"/>
<path d="M2480 503 c0 -18 2 -33 4 -33 9 0 13 39 5 51 -6 10 -9 4 -9 -18z"/>
<path d="M910 516 c0 -2 7 -7 16 -10 8 -3 12 -2 9 4 -6 10 -25 14 -25 6z"/>
<path d="M56 492 c-3 -5 1 -9 9 -9 8 0 12 4 9 9 -3 4 -7 8 -9 8 -2 0 -6 -4 -9
-8z"/>
<path d="M266 494 c7 -3 11 -13 9 -22 -1 -9 0 -11 2 -4 3 7 10 9 16 5 7 -4 6
1 -2 10 -7 9 -19 17 -25 16 -8 0 -8 -2 0 -5z"/>
<path d="M2570 495 c0 -3 7 -14 16 -23 15 -14 16 -14 13 3 -4 17 -29 35 -29
20z"/>
<path d="M602 473 c-7 -13 -7 -24 0 -34 8 -12 9 -11 5 2 -3 9 0 22 6 28 6 6 8
13 5 17 -4 3 -11 -3 -16 -13z"/>
<path d="M950 482 c0 -5 7 -9 15 -9 8 0 15 4 15 9 0 4 -7 8 -15 8 -8 0 -15 -4
-15 -8z"/>
<path d="M2450 466 c-8 -23 -5 -69 6 -87 2 -4 -2 -9 -8 -12 -9 -3 -10 -8 -3
-16 8 -7 14 -5 23 9 7 11 8 20 3 20 -5 0 -11 16 -13 35 -2 19 -1 35 2 35 3 0
6 9 7 20 2 27 -6 25 -17 -4z"/>
<path d="M1470 461 c0 -7 -5 -9 -12 -5 -7 5 -8 3 -3 -5 5 -9 10 -10 18 -2 6 6
8 14 4 18 -4 3 -7 1 -7 -6z"/>
<path d="M205 450 c-3 -6 1 -7 9 -4 18 7 21 14 7 14 -6 0 -13 -4 -16 -10z"/>
<path d="M995 450 c-4 -6 -11 -7 -17 -4 -6 4 -8 2 -5 -4 4 -5 16 -8 27 -5 11
3 17 9 14 14 -7 12 -11 11 -19 -1z"/>
<path d="M2367 426 c-4 -10 -3 -15 3 -11 13 8 13 -21 0 -46 -8 -15 -7 -19 4
-19 9 0 15 14 18 39 2 22 0 37 -3 35 -4 -2 -9 1 -11 8 -3 7 -7 5 -11 -6z"/>
<path d="M2477 429 c7 -7 15 -10 18 -7 3 3 -2 9 -12 12 -14 6 -15 5 -6 -5z"/>
<path d="M739 428 c-10 -33 6 -46 28 -24 4 4 1 6 -7 4 -8 -1 -14 3 -12 10 2
10 -6 19 -9 10z"/>
<path d="M2220 419 c0 -5 5 -7 10 -4 6 3 10 8 10 11 0 2 -4 4 -10 4 -5 0 -10
-5 -10 -11z"/>
<path d="M239 403 c-13 -16 -12 -17 4 -4 16 13 21 21 13 21 -2 0 -10 -8 -17
-17z"/>
<path d="M647 406 c-4 -9 -3 -15 2 -11 5 3 11 1 13 -3 1 -5 12 0 23 11 20 20
20 20 -2 8 -16 -8 -22 -8 -25 1 -3 7 -7 5 -11 -6z"/>
<path d="M574 388 l-19 -23 23 19 c21 18 27 26 19 26 -2 0 -12 -10 -23 -22z"/>
<path d="M2234 399 c-11 -18 14 -35 29 -20 10 10 8 11 -7 5 -16 -6 -18 -4 -13
9 7 19 2 23 -9 6z"/>
<path d="M926 378 c30 -35 47 -52 74 -73 14 -11 0 6 -30 38 -53 56 -81 78 -44
35z"/>
<path d="M1318 393 c7 -3 16 -2 19 1 4 3 -2 6 -13 5 -11 0 -14 -3 -6 -6z"/>
<path d="M1696 383 c-6 -14 -5 -15 5 -6 7 7 10 15 7 18 -3 3 -9 -2 -12 -12z"/>
<path d="M2205 393 c3 -3 0 -12 -7 -20 -6 -7 -8 -16 -4 -20 3 -3 6 -1 6 6 0 7
4 10 9 7 11 -7 9 21 -2 29 -4 3 -5 2 -2 -2z"/>
<path d="M695 380 c-3 -6 1 -7 9 -4 18 7 21 14 7 14 -6 0 -13 -4 -16 -10z"/>
<path d="M1100 380 c0 -5 5 -10 11 -10 5 0 7 5 4 10 -3 6 -8 10 -11 10 -2 0
-4 -4 -4 -10z"/>
<path d="M2860 387 c0 -4 13 -28 29 -54 56 -94 101 -185 101 -206 0 -11 3 -18
6 -14 18 18 -11 101 -62 179 -58 86 -74 107 -74 95z"/>
<path d="M1995 371 c-3 -5 -1 -12 5 -16 5 -3 10 1 10 9 0 18 -6 21 -15 7z"/>
<path d="M207 359 c7 -7 15 -10 18 -7 3 3 -2 9 -12 12 -14 6 -15 5 -6 -5z"/>
<path d="M1110 348 c0 -5 6 -8 13 -5 18 6 49 -12 41 -25 -4 -6 -1 -9 7 -6 8 3
25 -2 39 -12 38 -25 50 -32 50 -26 0 3 -26 22 -57 43 -58 37 -93 49 -93 31z"/>
<path d="M512 341 c-11 -7 -11 -9 0 -14 9 -3 15 1 15 9 0 8 -1 14 -1 14 -1 0
-7 -4 -14 -9z"/>
<path d="M660 340 c0 -5 5 -10 11 -10 5 0 7 5 4 10 -3 6 -8 10 -11 10 -2 0 -4
-4 -4 -10z"/>
<path d="M2469 348 c-1 -2 -3 -12 -4 -23 -2 -11 -6 -28 -10 -37 -4 -11 -3 -18
4 -18 6 0 11 7 11 16 0 8 4 13 8 10 5 -3 6 8 4 25 -4 25 -9 35 -13 27z"/>
<path d="M545 330 c-3 -6 1 -7 9 -4 18 7 21 14 7 14 -6 0 -13 -4 -16 -10z"/>
<path d="M1795 328 c-2 -7 -9 -32 -15 -56 -6 -23 -15 -40 -20 -37 -6 3 -7 -1
-4 -9 4 -10 1 -16 -7 -16 -7 0 -10 -2 -7 -6 3 -3 2 -21 -2 -40 -4 -19 -4 -34
1 -34 5 0 9 9 9 20 0 10 7 23 16 28 11 6 13 12 6 16 -7 4 -5 20 7 49 21 48 34
97 26 97 -3 0 -8 -6 -10 -12z"/>
<path d="M2206 327 c3 -9 10 -17 15 -17 5 0 9 -5 9 -11 0 -5 -5 -7 -11 -3 -9
5 -10 -4 -4 -32 5 -21 8 -89 7 -151 -2 -106 -1 -112 18 -110 22 1 28 17 8 17
-10 0 -10 2 -1 8 8 5 10 26 7 62 -2 30 -5 75 -5 100 -1 25 -5 52 -9 60 -5 8
-4 22 0 31 7 12 2 23 -16 40 -18 17 -23 19 -18 6z"/>
<path d="M810 319 c0 -5 5 -7 10 -4 6 3 10 8 10 11 0 2 -4 4 -10 4 -5 0 -10
-5 -10 -11z"/>
<path d="M1990 325 c0 -5 5 -17 10 -25 5 -8 10 -10 10 -5 0 6 -5 17 -10 25 -5
8 -10 11 -10 5z"/>
<path d="M2373 315 c0 -8 4 -12 9 -9 5 3 6 10 3 15 -9 13 -12 11 -12 -6z"/>
<path d="M882 304 c-14 -16 -5 -18 17 -5 7 5 9 11 5 14 -5 3 -15 -1 -22 -9z"/>
<path d="M2040 316 c0 -2 7 -7 16 -10 8 -3 12 -2 9 4 -6 10 -25 14 -25 6z"/>
<path d="M2730 285 c0 -14 2 -25 4 -25 2 0 6 11 8 25 3 14 1 25 -3 25 -5 0 -9
-11 -9 -25z"/>
<path d="M225 290 c-3 -5 0 -10 7 -10 7 -1 3 -9 -11 -20 -13 -11 -19 -20 -13
-20 18 0 41 30 36 45 -7 18 -11 19 -19 5z"/>
<path d="M2389 298 c-6 -12 -5 -46 2 -43 4 3 7 14 6 25 -1 18 -5 25 -8 18z"/>
<path d="M557 279 c7 -7 15 -10 18 -7 3 3 -2 9 -12 12 -14 6 -15 5 -6 -5z"/>
<path d="M666 277 c3 -10 9 -15 12 -12 3 3 0 11 -7 18 -10 9 -11 8 -5 -6z"/>
<path d="M1608 283 c7 -3 16 -2 19 1 4 3 -2 6 -13 5 -11 0 -14 -3 -6 -6z"/>
<path d="M100 260 c-6 -11 -8 -20 -6 -20 3 0 10 9 16 20 6 11 8 20 6 20 -3 0
-10 -9 -16 -20z"/>
<path d="M1268 262 c-4 -15 -1 -18 14 -14 11 2 16 8 11 11 -4 3 -11 10 -14 14
-4 4 -9 -1 -11 -11z"/>
<path d="M1992 275 c4 -4 3 -16 -3 -26 -5 -11 -7 -19 -5 -19 3 0 10 9 16 19 7
15 7 22 -2 27 -7 4 -10 4 -6 -1z"/>
<path d="M2030 269 c0 -5 5 -7 10 -4 6 3 10 8 10 11 0 2 -4 4 -10 4 -5 0 -10
-5 -10 -11z"/>
<path d="M803 254 c-3 -8 -2 -19 3 -24 5 -5 9 1 9 16 0 28 -3 30 -12 8z"/>
<path d="M1683 248 c3 -9 1 -19 -6 -22 -7 -2 -4 -5 6 -5 20 -1 21 7 6 29 -9
13 -10 13 -6 -2z"/>
<path d="M2450 250 c0 -5 4 -10 9 -10 6 0 13 5 16 10 3 6 -1 10 -9 10 -9 0
-16 -4 -16 -10z"/>
<path d="M1232 230 c0 -14 2 -19 5 -12 2 6 2 18 0 25 -3 6 -5 1 -5 -13z"/>
<path d="M2156 241 c-4 -7 -5 -15 -2 -18 9 -9 19 4 14 18 -4 11 -6 11 -12 0z"/>
<path d="M2841 234 c0 -11 3 -14 6 -6 3 7 2 16 -1 19 -3 4 -6 -2 -5 -13z"/>
<path d="M2035 229 c-4 -6 -5 -12 -2 -15 2 -3 7 2 10 11 7 17 1 20 -8 4z"/>
<path d="M2500 219 c0 -12 -5 -19 -12 -16 -7 2 -12 10 -10 16 1 6 -4 11 -12
11 -10 0 -14 -10 -14 -30 1 -23 6 -30 20 -30 11 0 16 5 13 10 -3 6 1 10 9 10
10 0 16 9 16 25 0 14 -2 25 -5 25 -3 0 -5 -9 -5 -21z"/>
<path d="M2621 224 c0 -11 3 -14 6 -6 3 7 2 16 -1 19 -3 4 -6 -2 -5 -13z"/>
<path d="M525 220 c-3 -5 -2 -10 4 -10 5 0 13 5 16 10 3 6 2 10 -4 10 -5 0
-13 -4 -16 -10z"/>
<path d="M1939 228 c-15 -51 -13 -119 6 -137 11 -12 12 -8 5 23 -4 21 -4 34 1
30 5 -3 9 2 9 11 0 10 -5 13 -12 9 -8 -5 -7 0 2 11 9 11 10 16 3 11 -7 -4 -13
-3 -13 3 0 5 8 12 18 14 14 4 14 5 -3 6 -17 1 -18 3 -5 11 10 6 11 10 3 10 -7
0 -13 -1 -14 -2z"/>
<path d="M2727 223 c-11 -10 -8 -53 4 -53 5 0 7 4 4 10 -3 5 -1 19 5 30 10 19
1 28 -13 13z"/>
<path d="M2605 198 c2 -10 -1 -18 -7 -18 -5 0 -6 -4 -3 -10 3 -5 2 -10 -3 -10
-5 0 -12 -21 -15 -47 -3 -27 -9 -63 -13 -80 -10 -49 13 -41 26 9 7 23 13 52
14 64 1 13 9 31 17 40 9 11 9 15 2 10 -16 -9 -16 -1 -2 26 7 13 7 18 1 14 -6
-3 -12 -1 -15 6 -2 7 -3 5 -2 -4z"/>
<path d="M230 203 c7 -3 6 -11 -1 -24 -12 -24 -18 -180 -6 -176 5 1 9 41 11
87 1 47 4 91 6 99 3 7 -1 15 -8 17 -7 1 -8 0 -2 -3z"/>
<path d="M900 200 c0 -6 7 -10 15 -10 8 0 15 2 15 4 0 2 -7 6 -15 10 -8 3 -15
1 -15 -4z"/>
<path d="M1685 200 c3 -5 8 -10 11 -10 2 0 4 5 4 10 0 6 -5 10 -11 10 -5 0 -7
-4 -4 -10z"/>
<path d="M1852 194 c10 -10 20 -16 22 -13 3 3 -5 11 -17 18 -21 13 -21 12 -5
-5z"/>
<path d="M2155 200 c-3 -5 1 -10 10 -10 9 0 13 5 10 10 -3 6 -8 10 -10 10 -2
0 -7 -4 -10 -10z"/>
<path d="M291 191 c-10 -7 -7 -9 12 -8 14 1 23 5 20 10 -6 9 -15 9 -32 -2z"/>
<path d="M1238 193 c7 -3 16 -2 19 1 4 3 -2 6 -13 5 -11 0 -14 -3 -6 -6z"/>
<path d="M1325 190 c-3 -6 1 -7 9 -4 18 7 21 14 7 14 -6 0 -13 -4 -16 -10z"/>
<path d="M1617 181 c-4 -17 -3 -21 5 -13 5 5 8 16 6 23 -3 8 -7 3 -11 -10z"/>
<path d="M2018 171 c5 -23 6 -24 13 -6 11 29 11 32 -4 32 -9 0 -12 -9 -9 -26z"/>
<path d="M1488 183 c6 -2 18 -2 25 0 6 3 1 5 -13 5 -14 0 -19 -2 -12 -5z"/>
<path d="M2345 180 c-3 -5 -1 -10 4 -10 6 0 11 5 11 10 0 6 -2 10 -4 10 -3 0
-8 -4 -11 -10z"/>
<path d="M446 167 c3 -10 9 -15 12 -12 3 3 0 11 -7 18 -10 9 -11 8 -5 -6z"/>
<path d="M2137 163 c4 -11 8 -12 13 -2 6 8 10 6 13 -7 6 -19 6 -19 4 0 -1 11
-10 20 -19 22 -11 1 -15 -3 -11 -13z"/>
<path d="M1105 160 c-3 -6 1 -7 9 -4 18 7 21 14 7 14 -6 0 -13 -4 -16 -10z"/>
<path d="M1381 154 c0 -11 3 -14 6 -6 3 7 2 16 -1 19 -3 4 -6 -2 -5 -13z"/>
<path d="M2846 155 c-3 -8 -1 -15 4 -15 6 0 10 7 10 15 0 8 -2 15 -4 15 -2 0
-6 -7 -10 -15z"/>
<path d="M9 100 c0 -36 -2 -73 -4 -83 -2 -9 1 -17 6 -17 5 0 10 19 10 43 1 23
2 54 3 70 1 15 -2 33 -6 40 -4 6 -8 -17 -9 -53z"/>
<path d="M1766 148 c3 -5 10 -6 15 -3 13 9 11 12 -6 12 -8 0 -12 -4 -9 -9z"/>
<path d="M2470 150 c-8 -5 -11 -12 -7 -16 4 -4 13 -2 19 4 15 15 7 24 -12 12z"/>
<path d="M2717 153 c-4 -3 -7 -11 -7 -17 0 -6 5 -5 12 2 6 6 9 14 7 17 -3 3
-9 2 -12 -2z"/>
<path d="M946 135 c4 -8 8 -15 10 -15 2 0 4 7 4 15 0 8 -4 15 -10 15 -5 0 -7
-7 -4 -15z"/>
<path d="M695 130 c-3 -5 -2 -10 4 -10 5 0 13 5 16 10 3 6 2 10 -4 10 -5 0
-13 -4 -16 -10z"/>
<path d="M750 130 c-9 -6 -10 -10 -3 -10 6 0 15 5 18 10 8 12 4 12 -15 0z"/>
<path d="M1095 130 c3 -5 8 -10 11 -10 2 0 4 5 4 10 0 6 -5 10 -11 10 -5 0 -7
-4 -4 -10z"/>
<path d="M267 111 c-4 -17 -3 -21 5 -13 5 5 8 16 6 23 -3 8 -7 3 -11 -10z"/>
<path d="M320 113 c-1 -7 -3 -16 -4 -20 -1 -5 -8 -19 -15 -31 -7 -13 -10 -26
-7 -30 3 -3 6 0 6 6 0 6 7 18 16 26 8 9 13 26 11 38 -2 13 -5 17 -7 11z"/>
<path d="M1039 103 c-13 -16 -12 -17 4 -4 16 13 21 21 13 21 -2 0 -10 -8 -17
-17z"/>
<path d="M1745 109 c-4 -6 -5 -12 -2 -15 2 -3 7 2 10 11 7 17 1 20 -8 4z"/>
<path d="M750 106 c0 -2 7 -7 16 -10 8 -3 12 -2 9 4 -6 10 -25 14 -25 6z"/>
<path d="M1496 102 c-3 -5 1 -9 9 -9 8 0 12 4 9 9 -3 4 -7 8 -9 8 -2 0 -6 -4
-9 -8z"/>
<path d="M1535 101 c-3 -5 -2 -12 3 -15 5 -3 9 1 9 9 0 17 -3 19 -12 6z"/>
<path d="M395 90 c-3 -6 1 -7 9 -4 18 7 21 14 7 14 -6 0 -13 -4 -16 -10z"/>
<path d="M915 90 c-3 -5 -2 -10 4 -10 5 0 13 5 16 10 3 6 2 10 -4 10 -5 0 -13
-4 -16 -10z"/>
<path d="M1715 91 c-3 -5 -2 -12 3 -15 5 -3 9 1 9 9 0 17 -3 19 -12 6z"/>
<path d="M1850 91 c0 -5 5 -13 10 -16 6 -3 10 -2 10 4 0 5 -4 13 -10 16 -5 3
-10 2 -10 -4z"/>
<path d="M2840 89 c0 -5 5 -7 10 -4 6 3 10 8 10 11 0 2 -4 4 -10 4 -5 0 -10
-5 -10 -11z"/>
<path d="M500 80 c-9 -6 -10 -10 -3 -10 6 0 15 5 18 10 8 12 4 12 -15 0z"/>
<path d="M1050 80 c0 -5 7 -7 15 -4 8 4 15 8 15 10 0 2 -7 4 -15 4 -8 0 -15
-4 -15 -10z"/>
<path d="M1920 88 c0 -4 4 -18 10 -32 11 -30 29 -35 27 -7 0 11 -4 18 -8 15
-4 -2 -12 4 -18 13 -6 10 -11 15 -11 11z"/>
<path d="M2027 69 c6 -23 9 -24 16 -5 3 8 0 17 -7 19 -10 4 -12 -1 -9 -14z"/>
<path d="M336 65 c-3 -9 -6 -22 -5 -28 0 -7 5 -1 10 12 5 13 8 26 5 28 -2 2
-6 -3 -10 -12z"/>
<path d="M2064 69 c-3 -6 -2 -15 3 -20 5 -5 9 -1 9 11 0 23 -2 24 -12 9z"/>
<path d="M2309 73 c0 -5 -2 -16 -4 -25 -2 -10 0 -18 5 -18 4 0 8 11 8 25 0 22
-7 36 -9 18z"/>
<path d="M1755 60 c-4 -6 -11 -7 -17 -4 -7 4 -8 2 -4 -4 7 -12 36 -5 36 9 0
12 -7 11 -15 -1z"/>
<path d="M2535 59 c-4 -6 -5 -12 -2 -15 2 -3 7 2 10 11 7 17 1 20 -8 4z"/>
<path d="M407 46 c-4 -10 -1 -13 8 -9 8 3 12 9 9 14 -7 12 -11 11 -17 -5z"/>
<path d="M473 45 c-3 -9 -3 -18 -1 -21 3 -3 8 4 11 16 6 23 -1 27 -10 5z"/>
<path d="M2480 46 c-5 -5 -10 -19 -9 -31 0 -14 2 -15 6 -5 3 8 14 22 25 31 16
12 17 16 4 16 -8 0 -20 -5 -26 -11z"/>
<path d="M2707 53 c-4 -3 -7 -13 -7 -22 1 -13 3 -13 11 2 11 19 8 33 -4 20z"/>
<path d="M1905 40 c-3 -5 -1 -10 4 -10 6 0 11 5 11 10 0 6 -2 10 -4 10 -3 0
-8 -4 -11 -10z"/>
<path d="M2830 46 c0 -2 7 -7 16 -10 8 -3 12 -2 9 4 -6 10 -25 14 -25 6z"/>
<path d="M2045 30 c3 -5 11 -10 16 -10 6 0 7 5 4 10 -3 6 -11 10 -16 10 -6 0
-7 -4 -4 -10z"/>
<path d="M2960 30 c0 -5 5 -10 11 -10 5 0 7 5 4 10 -3 6 -8 10 -11 10 -2 0 -4
-4 -4 -10z"/>
<path d="M2510 19 c0 -5 5 -7 10 -4 6 3 10 8 10 11 0 2 -4 4 -10 4 -5 0 -10
-5 -10 -11z"/>
<path d="M286 12 c-3 -5 1 -9 9 -9 8 0 15 4 15 9 0 10 -17 10 -24 0z"/>
<path d="M1940 10 c-9 -6 -10 -10 -3 -10 6 0 15 5 18 10 8 12 4 12 -15 0z"/>
</g>
</svg>
